<svg width="134" height="48" viewBox="0 0 134 48" fill="none" xmlns="http://www.w3.org/2000/svg">
<g id="Play Store">
<rect id="Rectangle 24" x="0.230713" y="0.973633" width="133.012" height="46.5543" rx="23.2771" fill="#080809"/>
<g id="apple (2) 1">
<g id="Group">
<path id="Vector" d="M29.2133 32.8925C26.0459 32.8743 23.4259 26.4086 23.4259 23.1157C23.4259 17.7369 27.461 16.5593 29.016 16.5593C29.7168 16.5593 30.4652 16.8345 31.1252 17.0781C31.5867 17.2479 32.0641 17.4233 32.3296 17.4233C32.4885 17.4233 32.863 17.2741 33.1936 17.1432C33.8987 16.8625 34.776 16.5137 35.7977 16.5137C35.7996 16.5137 35.802 16.5137 35.8038 16.5137C36.5667 16.5137 38.8799 16.6811 40.2706 18.7696L40.5963 19.2591L40.1275 19.6129C39.4577 20.1182 38.2357 21.0401 38.2357 22.8661C38.2357 25.0289 39.6197 25.8606 40.2846 26.2606C40.5781 26.4372 40.8819 26.6193 40.8819 27.0175C40.8819 27.2775 38.8068 32.8603 35.7935 32.8603C35.0561 32.8603 34.5349 32.6387 34.0752 32.4432C33.61 32.2453 33.2087 32.0748 32.5457 32.0748C32.2096 32.0748 31.7846 32.2338 31.3346 32.4024C30.7197 32.6319 30.0237 32.8925 29.234 32.8925H29.2133Z" fill="white"/>
<path id="Vector_2" d="M36.1171 11.6128C36.1956 14.4425 34.1719 16.4056 32.1506 16.2824C31.8176 14.0243 34.1717 11.6128 36.1171 11.6128Z" fill="white"/>
</g>
</g>
<g id="Vector_3">
<path d="M52.1455 18.2654H53.5421L51.6427 12.6789H50.0146L48.1152 18.2654H49.5119L49.7912 17.3875H51.8662L52.1455 18.2654ZM50.1743 16.1904L50.8287 14.1393L51.4831 16.1904H50.1743Z" fill="white"/>
<path d="M56.3686 14.275L55.5386 16.8049L54.7086 14.275H53.3838L54.8602 18.2654H56.2169L57.6934 14.275H56.3686Z" fill="white"/>
<path d="M60.8737 14.275V14.6501C60.6104 14.3468 60.2193 14.1633 59.6846 14.1633C58.6391 14.1633 57.7772 15.0811 57.7772 16.2702C57.7772 17.4593 58.6391 18.3771 59.6846 18.3771C60.2193 18.3771 60.6104 18.1936 60.8737 17.8903V18.2654H62.0708V14.275H60.8737ZM59.924 17.2439C59.3734 17.2439 58.9743 16.8688 58.9743 16.2702C58.9743 15.6716 59.3734 15.2966 59.924 15.2966C60.4747 15.2966 60.8737 15.6716 60.8737 16.2702C60.8737 16.8688 60.4747 17.2439 59.924 17.2439Z" fill="white"/>
<path d="M62.9491 18.2654H64.1462V12.4395H62.9491V18.2654Z" fill="white"/>
<path d="M65.6208 13.9239C66.0118 13.9239 66.339 13.5967 66.339 13.2056C66.339 12.8145 66.0118 12.4873 65.6208 12.4873C65.2297 12.4873 64.9025 12.8145 64.9025 13.2056C64.9025 13.5967 65.2297 13.9239 65.6208 13.9239ZM65.0222 18.2654H66.2193V14.275H65.0222V18.2654Z" fill="white"/>
<path d="M69.4816 14.1633C68.9469 14.1633 68.5558 14.3468 68.2924 14.6501V12.6789H67.0953V18.2654H68.2924V17.8903C68.5558 18.1936 68.9469 18.3771 69.4816 18.3771C70.5271 18.3771 71.389 17.4593 71.389 16.2702C71.389 15.0811 70.5271 14.1633 69.4816 14.1633ZM69.2422 17.2439C68.6915 17.2439 68.2924 16.8688 68.2924 16.2702C68.2924 15.6716 68.6915 15.2966 69.2422 15.2966C69.7928 15.2966 70.1919 15.6716 70.1919 16.2702C70.1919 16.8688 69.7928 17.2439 69.2422 17.2439Z" fill="white"/>
<path d="M72.0677 18.2654H73.2648V12.4395H72.0677V18.2654Z" fill="white"/>
<path d="M75.2102 16.749H78.0434C78.0753 16.5974 78.0913 16.4378 78.0913 16.2702C78.0913 15.0651 77.2294 14.1633 76.0642 14.1633C74.8032 14.1633 73.9413 15.0811 73.9413 16.2702C73.9413 17.4593 74.7873 18.3771 76.152 18.3771C76.9101 18.3771 77.5007 18.0978 77.8918 17.5551L76.9341 17.0044C76.7745 17.18 76.4951 17.3077 76.1679 17.3077C75.729 17.3077 75.3619 17.164 75.2102 16.749ZM75.1863 15.8552C75.298 15.4482 75.6013 15.2247 76.0562 15.2247C76.4153 15.2247 76.7745 15.3923 76.9022 15.8552H75.1863Z" fill="white"/>
<path d="M82.6808 18.3771C83.854 18.3771 84.7957 17.4593 84.7957 16.2702C84.7957 15.0811 83.854 14.1633 82.6808 14.1633C81.5077 14.1633 80.5659 15.0811 80.5659 16.2702C80.5659 17.4593 81.5077 18.3771 82.6808 18.3771ZM82.6808 17.2119C82.1621 17.2119 81.763 16.8368 81.763 16.2702C81.763 15.7036 82.1621 15.3285 82.6808 15.3285C83.1996 15.3285 83.5986 15.7036 83.5986 16.2702C83.5986 16.8368 83.1996 17.2119 82.6808 17.2119Z" fill="white"/>
<path d="M87.8112 14.1633C87.2845 14.1633 86.8854 14.3548 86.6699 14.6501V14.275H85.4728V18.2654H86.6699V16.0866C86.6699 15.52 86.9732 15.2646 87.4122 15.2646C87.7952 15.2646 88.1065 15.4961 88.1065 15.9909V18.2654H89.3036V15.8153C89.3036 14.7379 88.6172 14.1633 87.8112 14.1633Z" fill="white"/>
<path d="M94.4592 15.4242V14.275H93.6372V13.1577L92.4401 13.5169V14.275H91.8016V15.4242H92.4401V16.8368C92.4401 17.9541 92.895 18.425 94.4592 18.2654V17.18C93.9325 17.2119 93.6372 17.18 93.6372 16.8368V15.4242H94.4592Z" fill="white"/>
<path d="M97.4754 14.1633C96.9486 14.1633 96.5496 14.3548 96.3341 14.6501V12.6789H95.137V18.2654H96.3341V16.0866C96.3341 15.52 96.6374 15.2646 97.0763 15.2646C97.4594 15.2646 97.7706 15.4961 97.7706 15.9909V18.2654H98.9677V15.8153C98.9677 14.7379 98.2814 14.1633 97.4754 14.1633Z" fill="white"/>
<path d="M100.859 16.749H103.692C103.724 16.5974 103.74 16.4378 103.74 16.2702C103.74 15.0651 102.878 14.1633 101.713 14.1633C100.452 14.1633 99.5903 15.0811 99.5903 16.2702C99.5903 17.4593 100.436 18.3771 101.801 18.3771C102.559 18.3771 103.15 18.0978 103.541 17.5551L102.583 17.0044C102.423 17.18 102.144 17.3077 101.817 17.3077C101.378 17.3077 101.011 17.164 100.859 16.749ZM100.835 15.8552C100.947 15.4482 101.25 15.2247 101.705 15.2247C102.064 15.2247 102.423 15.3923 102.551 15.8552H100.835Z" fill="white"/>
<path d="M54.8323 32.8967H57.1601L53.9944 23.5859H51.2809L48.1152 32.8967H50.4429L50.9085 31.4336H54.3668L54.8323 32.8967ZM51.5469 29.4384L52.6376 26.02L53.7283 29.4384H51.5469Z" fill="white"/>
<path d="M61.8645 26.0599C60.9734 26.0599 60.3216 26.3658 59.8827 26.8713V26.2461H57.8875V35.557H59.8827V32.2716C60.3216 32.777 60.9734 33.0829 61.8645 33.0829C63.607 33.0829 65.0435 31.5533 65.0435 29.5714C65.0435 27.5895 63.607 26.0599 61.8645 26.0599ZM61.4655 31.1942C60.5477 31.1942 59.8827 30.569 59.8827 29.5714C59.8827 28.5738 60.5477 27.9487 61.4655 27.9487C62.3833 27.9487 63.0483 28.5738 63.0483 29.5714C63.0483 30.569 62.3833 31.1942 61.4655 31.1942Z" fill="white"/>
<path d="M70.1518 26.0599C69.2606 26.0599 68.6089 26.3658 68.1699 26.8713V26.2461H66.1747V35.557H68.1699V32.2716C68.6089 32.777 69.2606 33.0829 70.1518 33.0829C71.8943 33.0829 73.3308 31.5533 73.3308 29.5714C73.3308 27.5895 71.8943 26.0599 70.1518 26.0599ZM69.7528 31.1942C68.835 31.1942 68.1699 30.569 68.1699 29.5714C68.1699 28.5738 68.835 27.9487 69.7528 27.9487C70.6706 27.9487 71.3356 28.5738 71.3356 29.5714C71.3356 30.569 70.6706 31.1942 69.7528 31.1942Z" fill="white"/>
<path d="M74.462 32.8967H76.4572V23.1868H74.462V32.8967Z" fill="white"/>
<path d="M79.6996 30.3695H84.4215C84.4747 30.1168 84.5013 29.8507 84.5013 29.5714C84.5013 27.5629 83.0648 26.0599 81.1228 26.0599C79.0212 26.0599 77.5847 27.5895 77.5847 29.5714C77.5847 31.5533 78.9946 33.0829 81.2691 33.0829C82.5327 33.0829 83.517 32.6174 84.1688 31.7129L82.5727 30.7951C82.3066 31.0878 81.8411 31.3006 81.2957 31.3006C80.5642 31.3006 79.9523 31.0612 79.6996 30.3695ZM79.6597 28.8798C79.8459 28.2014 80.3514 27.829 81.1095 27.829C81.7081 27.829 82.3066 28.1083 82.5194 28.8798H79.6597Z" fill="white"/>
<path d="M92.2836 33.0829C94.3054 33.0829 95.7419 32.0188 95.7419 30.2232C95.7419 28.2546 94.159 27.7625 92.7491 27.3368C91.2993 26.8979 91.0732 26.6052 91.0732 26.1796C91.0732 25.8072 91.4057 25.4746 92.0708 25.4746C92.922 25.4746 93.361 25.887 93.6802 26.552L95.4759 25.5012C94.7975 24.1312 93.6004 23.3997 92.0708 23.3997C90.4613 23.3997 88.945 24.4371 88.945 26.2328C88.945 28.0152 90.3017 28.6802 91.685 29.066C93.0816 29.4517 93.6137 29.6778 93.6137 30.2498C93.6137 30.6089 93.361 31.0079 92.3501 31.0079C91.2993 31.0079 90.7273 30.4892 90.3948 29.7177L88.5592 30.7818C89.078 32.1519 90.3283 33.0829 92.2836 33.0829Z" fill="white"/>
<path d="M100.441 28.1615V26.2461H99.0714V24.3839L97.0762 24.9825V26.2461H96.0121V28.1615H97.0762V30.5158C97.0762 32.378 97.8343 33.1627 100.441 32.8967V31.0878C99.5635 31.141 99.0714 31.0878 99.0714 30.5158V28.1615H100.441Z" fill="white"/>
<path d="M104.633 33.0829C106.589 33.0829 108.158 31.5533 108.158 29.5714C108.158 27.5895 106.589 26.0599 104.633 26.0599C102.678 26.0599 101.109 27.5895 101.109 29.5714C101.109 31.5533 102.678 33.0829 104.633 33.0829ZM104.633 31.141C103.769 31.141 103.104 30.5158 103.104 29.5714C103.104 28.627 103.769 28.0019 104.633 28.0019C105.498 28.0019 106.163 28.627 106.163 29.5714C106.163 30.5158 105.498 31.141 104.633 31.141Z" fill="white"/>
<path d="M111.282 27.4299V26.2461H109.287V32.8967H111.282V29.8906C111.282 28.5738 112.452 28.2413 113.277 28.3743V26.1131C112.439 26.1131 111.548 26.5387 111.282 27.4299Z" fill="white"/>
<path d="M115.797 30.3695H120.519C120.572 30.1168 120.599 29.8507 120.599 29.5714C120.599 27.5629 119.163 26.0599 117.221 26.0599C115.119 26.0599 113.682 27.5895 113.682 29.5714C113.682 31.5533 115.092 33.0829 117.367 33.0829C118.63 33.0829 119.615 32.6174 120.267 31.7129L118.67 30.7951C118.404 31.0878 117.939 31.3006 117.393 31.3006C116.662 31.3006 116.05 31.0612 115.797 30.3695ZM115.757 28.8798C115.944 28.2014 116.449 27.829 117.207 27.829C117.806 27.829 118.404 28.1083 118.617 28.8798H115.757Z" fill="white"/>
</g>
</g>
</svg>
