<svg width="28" height="28" viewBox="0 0 28 28" fill="none" xmlns="http://www.w3.org/2000/svg">
<g id="navigation 1">
<g id="Navigation">
<path id="Vector" d="M24.6353 4.0727L15.4908 24.0245C15.4142 24.1917 15.2845 24.3287 15.1218 24.4143C14.9591 24.4998 14.7726 24.529 14.5916 24.4973C14.4105 24.4657 14.2451 24.3749 14.1211 24.2391C13.9971 24.1034 13.9216 23.9305 13.9064 23.7473L13.1333 14.4724L3.85842 13.6993C3.67524 13.6841 3.50227 13.6086 3.36656 13.4846C3.23084 13.3606 3.14005 13.1952 3.10836 13.0141C3.07668 12.8331 3.10589 12.6466 3.19144 12.4839C3.27699 12.3212 3.41405 12.1915 3.58117 12.1149L23.533 2.97036C23.6872 2.89967 23.8594 2.87787 24.0264 2.90789C24.1934 2.9379 24.3472 3.01829 24.4672 3.13827C24.5872 3.25824 24.6675 3.41205 24.6976 3.57904C24.7276 3.74603 24.7058 3.91821 24.6351 4.07245L24.6353 4.0727Z" fill="#080809"/>
</g>
</g>
</svg>
