<svg width="73" height="21" viewBox="0 0 73 21" fill="none" xmlns="http://www.w3.org/2000/svg">
<g id="Vector">
<path d="M8.47492 3.77531H4.73994V5.26505H6.7298C6.46377 5.97799 5.81467 6.41427 4.82506 6.41427C3.37789 6.41427 2.48405 5.48851 2.48405 4.22223C2.48405 2.91339 3.42046 1.98763 4.67609 1.98763C5.51673 1.98763 6.18711 2.3707 6.4957 2.86019L7.94287 2.03019C7.31505 1.02994 6.11262 0.327637 4.68673 0.327637C2.49469 0.327637 0.781494 2.05147 0.781494 4.21159C0.781494 6.35043 2.46277 8.07427 4.80378 8.07427C6.88941 8.07427 8.47492 6.69094 8.47492 4.41377V3.77531Z" fill="white"/>
<path d="M10.6053 6.28658V4.9671H13.2655V3.34967H10.6053V2.11532H13.5315V0.47661H8.90272V7.92529H13.5847V6.28658H10.6053Z" fill="white"/>
<path d="M19.0146 0.47661H13.4812V2.11532H15.3966V7.92529H17.0992V2.11532H19.0146V0.47661Z" fill="white"/>
<path d="M21.356 0.47661V7.92529H23.0585V0.47661H21.356Z" fill="white"/>
<path d="M28.8076 0.47661H23.2743V2.11532H25.1896V7.92529H26.8922V2.11532H28.8076V0.47661Z" fill="white"/>
<path d="M34.7031 8.07427C36.8419 8.07427 38.5764 6.39299 38.5764 4.20095C38.5764 2.00891 36.8419 0.327637 34.7031 0.327637C32.5643 0.327637 30.8298 2.00891 30.8298 4.20095C30.8298 6.39299 32.5643 8.07427 34.7031 8.07427ZM34.7031 6.41427C33.49 6.41427 32.5323 5.53107 32.5323 4.20095C32.5323 2.87083 33.49 1.98763 34.7031 1.98763C35.9162 1.98763 36.8738 2.87083 36.8738 4.20095C36.8738 5.53107 35.9162 6.41427 34.7031 6.41427Z" fill="white"/>
<path d="M43.1529 0.47661V4.52018L40.2799 0.47661H39.0029V7.92529H40.7055V3.88172L43.5786 7.92529H44.8555V0.47661H43.1529Z" fill="white"/>
<path d="M8.47492 16.4274V16.7147C8.47492 17.644 8.14505 18.4279 7.48531 19.0664C6.82557 19.6978 5.95655 20.0134 4.87827 20.0134C3.74323 20.0134 2.80683 19.6446 2.06905 18.9068C1.33128 18.1619 0.962391 17.2503 0.962391 16.172C0.962391 15.0938 1.32773 14.1857 2.05841 13.448C2.78909 12.7031 3.71486 12.3307 4.8357 12.3307C5.51673 12.3307 6.141 12.4938 6.70852 12.8201C7.28313 13.1465 7.7265 13.5827 8.03864 14.129L7.53851 14.4269C7.29022 13.9587 6.92134 13.5827 6.43185 13.299C5.94946 13.0152 5.41741 12.8733 4.8357 12.8733C3.87092 12.8733 3.0764 13.1926 2.45213 13.831C1.83495 14.4624 1.52636 15.2427 1.52636 16.172C1.52636 17.1014 1.8385 17.8852 2.46277 18.5237C3.08704 19.1551 3.89221 19.4707 4.87827 19.4707C5.75083 19.4707 6.45668 19.2331 6.99582 18.7578C7.53496 18.2825 7.83646 17.6831 7.9003 16.9595H4.73994V16.4274H8.47492Z" fill="white"/>
<path d="M16.0282 18.8961C15.2833 19.641 14.3753 20.0134 13.3041 20.0134C12.2329 20.0134 11.3249 19.641 10.58 18.8961C9.83513 18.1442 9.4627 17.2361 9.4627 16.172C9.4627 15.1079 9.83513 14.2035 10.58 13.4586C11.3249 12.7066 12.2329 12.3307 13.3041 12.3307C14.3753 12.3307 15.2833 12.7066 16.0282 13.4586C16.773 14.2035 17.1455 15.1079 17.1455 16.172C17.1455 17.2361 16.773 18.1442 16.0282 18.8961ZM10.9737 18.5131C11.6122 19.1515 12.389 19.4707 13.3041 19.4707C14.2192 19.4707 14.9925 19.1515 15.6238 18.5131C16.2623 17.8675 16.5815 17.0872 16.5815 16.172C16.5815 15.2569 16.2623 14.4801 15.6238 13.8417C14.9925 13.1961 14.2192 12.8733 13.3041 12.8733C12.389 12.8733 11.6122 13.1961 10.9737 13.8417C10.3424 14.4801 10.0267 15.2569 10.0267 16.172C10.0267 17.0872 10.3424 17.8675 10.9737 18.5131Z" fill="white"/>
<path d="M24.7155 18.8961C23.9707 19.641 23.0626 20.0134 21.9914 20.0134C20.9203 20.0134 20.0122 19.641 19.2674 18.8961C18.5225 18.1442 18.1501 17.2361 18.1501 16.172C18.1501 15.1079 18.5225 14.2035 19.2674 13.4586C20.0122 12.7066 20.9203 12.3307 21.9914 12.3307C23.0626 12.3307 23.9707 12.7066 24.7155 13.4586C25.4604 14.2035 25.8328 15.1079 25.8328 16.172C25.8328 17.2361 25.4604 18.1442 24.7155 18.8961ZM19.6611 18.5131C20.2995 19.1515 21.0763 19.4707 21.9914 19.4707C22.9066 19.4707 23.6798 19.1515 24.3112 18.5131C24.9496 17.8675 25.2689 17.0872 25.2689 16.172C25.2689 15.2569 24.9496 14.4801 24.3112 13.8417C23.6798 13.1961 22.9066 12.8733 21.9914 12.8733C21.0763 12.8733 20.2995 13.1961 19.6611 13.8417C19.0297 14.4801 18.714 15.2569 18.714 16.172C18.714 17.0872 19.0297 17.8675 19.6611 18.5131Z" fill="white"/>
<path d="M34.3499 16.4274V16.7147C34.3499 17.644 34.0201 18.4279 33.3603 19.0664C32.7006 19.6978 31.8316 20.0134 30.7533 20.0134C29.6183 20.0134 28.6818 19.6446 27.9441 18.9068C27.2063 18.1619 26.8374 17.2503 26.8374 16.172C26.8374 15.0938 27.2027 14.1857 27.9334 13.448C28.6641 12.7031 29.5899 12.3307 30.7107 12.3307C31.3917 12.3307 32.016 12.4938 32.5835 12.8201C33.1581 13.1465 33.6015 13.5827 33.9137 14.129L33.4135 14.4269C33.1652 13.9587 32.7964 13.5827 32.3069 13.299C31.8245 13.0152 31.2924 12.8733 30.7107 12.8733C29.7459 12.8733 28.9514 13.1926 28.3271 13.831C27.71 14.4624 27.4014 15.2427 27.4014 16.172C27.4014 17.1014 27.7135 17.8852 28.3378 18.5237C28.9621 19.1551 29.7672 19.4707 30.7533 19.4707C31.6258 19.4707 32.3317 19.2331 32.8708 18.7578C33.41 18.2825 33.7115 17.6831 33.7753 16.9595H30.615V16.4274H34.3499Z" fill="white"/>
<path d="M36.3273 19.3643H39.8389V19.8964H35.7634V12.4477H36.3273V19.3643Z" fill="white"/>
<path d="M41.5751 19.3643H45.2994V19.8964H41.0111V12.4477H45.2462V12.9798H41.5751V15.8741H44.9802V16.4061H41.5751V19.3643Z" fill="white"/>
<path d="M52.0544 12.4477C52.7212 12.4477 53.2745 12.6676 53.7143 13.1074C54.1542 13.5473 54.3741 14.0971 54.3741 14.7568C54.3741 15.4165 54.1542 15.9663 53.7143 16.4061C53.2745 16.8389 52.7212 17.0552 52.0544 17.0552H50.0858V19.8964H49.5218V12.4477H52.0544ZM52.0544 16.5232C52.5651 16.5232 52.9837 16.3565 53.31 16.0231C53.6434 15.6897 53.8101 15.2676 53.8101 14.7568C53.8101 14.2389 53.6434 13.8133 53.31 13.4799C52.9837 13.1465 52.5651 12.9798 52.0544 12.9798H50.0858V16.5232H52.0544Z" fill="white"/>
<path d="M56.3311 19.3643H59.8426V19.8964H55.7671V12.4477H56.3311V19.3643Z" fill="white"/>
<path d="M66.2346 19.8964L65.511 18.0023H61.776L61.0525 19.8964H60.4566L63.3509 12.4477H63.9468L66.8305 19.8964H66.2346ZM61.9889 17.4702H65.3088L63.6489 13.1394L61.9889 17.4702Z" fill="white"/>
<path d="M72.1304 12.4477L69.4169 16.8318V19.8964H68.853V16.8318L66.1395 12.4477H66.778L69.1403 16.2891L71.4919 12.4477H72.1304Z" fill="white"/>
</g>
</svg>
