<svg width="25" height="23" viewBox="0 0 25 23" fill="none" xmlns="http://www.w3.org/2000/svg">
<g id="heart (6) 1">
<g id="Group">
<g id="Group_2">
<path id="Vector" d="M22.8629 2.64954C21.6232 1.31704 19.886 0.558858 18.066 0.556048C16.2445 0.558156 14.5056 1.31593 13.264 2.64869L12.8408 3.09584L12.4177 2.64869C9.95396 -0.00292438 5.80712 -0.155203 3.15556 2.3085C3.03806 2.41771 2.92458 2.53115 2.81537 2.64869C0.201844 5.46769 0.201844 9.82433 2.81537 12.6433L12.219 22.56C12.5443 22.9035 13.0865 22.9182 13.4299 22.5929C13.4412 22.5822 13.4521 22.5713 13.4627 22.56L22.8629 12.6433C25.4762 9.82463 25.4762 5.46825 22.8629 2.64954ZM21.6234 11.4638H21.6226L12.8408 20.7261L4.05828 11.4638C2.0617 9.30983 2.0617 5.98134 4.05828 3.82737C5.87142 1.86221 8.93439 1.73899 10.8996 3.55212C10.995 3.64016 11.0868 3.73195 11.1748 3.82737L12.219 4.92895C12.5631 5.27085 13.1186 5.27085 13.4627 4.92895L14.5069 3.82822C16.32 1.86306 19.383 1.73984 21.3482 3.55297C21.4436 3.64101 21.5354 3.73281 21.6234 3.82822C23.6374 5.98561 23.6521 9.32017 21.6234 11.4638Z" fill="#4152CA"/>
</g>
</g>
</g>
</svg>
