<svg width="18" height="18" viewBox="0 0 18 18" fill="none" xmlns="http://www.w3.org/2000/svg">
<g id="map 1" clip-path="url(#clip0_0_179)">
<g id="Group">
<g id="Group_2">
<path id="Vector" d="M16.8119 0.797363C16.7188 0.797328 16.627 0.818955 16.5438 0.860558L12.0032 3.13147L6.86877 0.849183C6.86038 0.845602 6.8508 0.84497 6.84181 0.841389C6.81871 0.832753 6.79508 0.825555 6.7711 0.819833C6.74726 0.813408 6.72304 0.808387 6.6986 0.804841C6.64994 0.800839 6.60104 0.800839 6.55241 0.804841C6.52798 0.808387 6.50375 0.813408 6.47991 0.819833C6.45593 0.825555 6.43231 0.832753 6.4092 0.841389C6.40022 0.84497 6.39063 0.845567 6.38224 0.849183L0.989596 3.24593C0.773117 3.34205 0.633632 3.55671 0.633667 3.79355V16.9756C0.633772 17.1783 0.736324 17.3672 0.906284 17.4777C1.07628 17.5884 1.29069 17.6055 1.47609 17.5232L6.62547 15.2343L11.7749 17.5232C11.7838 17.5268 11.7934 17.5232 11.8024 17.5286C11.9475 17.5935 12.114 17.5898 12.256 17.5185C12.2656 17.5143 12.2763 17.5185 12.2859 17.5119L17.0794 15.1151C17.2825 15.0136 17.4108 14.806 17.4107 14.5788V1.39684C17.4109 1.06591 17.1428 0.797504 16.8119 0.797363ZM6.02631 14.1894L1.83202 16.0534V4.18304L6.02631 2.31896V14.1894ZM11.419 16.0534L7.22467 14.1894V2.31896L11.419 4.183V16.0534ZM16.2124 14.2085L12.6173 16.0061V4.16383L16.2124 2.36629V14.2085Z" fill="#84829A"/>
</g>
</g>
</g>
<defs>
<clipPath id="clip0_0_179">
<rect width="16.7774" height="16.7774" fill="white" transform="translate(0.632446 0.795898)"/>
</clipPath>
</defs>
</svg>
