<svg width="27" height="27" viewBox="0 0 27 27" fill="none" xmlns="http://www.w3.org/2000/svg">
<g id="google-play 1" clip-path="url(#clip0_0_303)">
<path id="Vector" d="M15.5156 13.5871L2.15642 26.451C1.53083 26.0234 1.15941 25.3123 1.16598 24.5546V2.6195C1.15941 1.86182 1.53083 1.15068 2.15642 0.723145L15.5156 13.5871Z" fill="#2196F3"/>
<path id="Vector_2" d="M20.19 9.09492L15.5155 13.5882L2.15637 0.724316C2.20671 0.685305 2.25914 0.649012 2.31338 0.615607C3.01942 0.187678 3.90132 0.173863 4.62045 0.57937L20.19 9.09492Z" fill="#4CAF50"/>
<path id="Vector_3" d="M25.8552 13.5895C25.8639 14.4449 25.3991 15.2349 24.6473 15.6429L20.1902 18.0828L15.5157 13.5895L20.1902 9.09619L24.6473 11.5361C25.3991 11.9441 25.8639 12.7342 25.8552 13.5895Z" fill="#F0BB1F"/>
<path id="Vector_4" d="M20.19 18.0817L4.62045 26.5972C3.89974 26.9965 3.02118 26.9826 2.31338 26.561C2.25914 26.5276 2.20671 26.4913 2.15637 26.4523L15.5155 13.5884L20.19 18.0817Z" fill="#F15A2B"/>
</g>
<defs>
<clipPath id="clip0_0_303">
<rect width="26.6024" height="26.6024" fill="white" transform="translate(0.209351 0.284668)"/>
</clipPath>
</defs>
</svg>
