<svg width="18" height="18" viewBox="0 0 18 18" fill="none" xmlns="http://www.w3.org/2000/svg">
<g id="send 2">
<path id="Vector" d="M15.3438 2.48434L7.77303 10.0831C7.68624 10.0328 7.59497 9.99068 7.5004 9.95726L2.50214 8.26554C2.35098 8.22766 2.21682 8.14036 2.12095 8.0175C2.02509 7.89465 1.97302 7.74329 1.97302 7.58746C1.97302 7.43163 2.02509 7.28026 2.12095 7.15741C2.21682 7.03456 2.35098 6.94725 2.50214 6.90937L14.9034 2.49832C14.9845 2.47079 15.0695 2.45663 15.1551 2.45638C15.2191 2.45534 15.2829 2.46479 15.3438 2.48434Z" fill="#84829A"/>
<path id="Vector_2" d="M15.8261 3.4221L11.415 15.8374C11.3664 15.982 11.2717 16.1068 11.1455 16.1927C11.0192 16.2785 10.8684 16.3207 10.7159 16.3127C10.5617 16.3198 10.4095 16.2756 10.2831 16.1871C10.1566 16.0986 10.063 15.9707 10.0169 15.8234L8.35313 10.8251C8.3197 10.7305 8.27758 10.6393 8.22729 10.5525L15.84 2.98169C15.883 3.12616 15.8781 3.28064 15.8261 3.4221Z" fill="#84829A"/>
</g>
</svg>
